<svg width="28" height="34" viewBox="0 0 28 34" fill="none" xmlns="http://www.w3.org/2000/svg">
<path d="M23.5882 22.429L22.2923 22.3543M22.2923 22.3543L23.5882 22.4887L23.4999 22.5484H23.1759L22.2039 22.638L21.2614 22.7873L20.3483 22.8769L18.7873 23.2054L18.2277 23.3547L17.5797 23.5637L16.9612 23.8026L16.4605 24.0714L15.9009 24.4297L15.4296 24.8776L14.9878 25.4151L14.6343 26.0422L14.4282 26.5797L14.1336 27.386L13.8391 28.6402L13.6329 29.984L13.4267 31.4173L13.3678 32.4924L13.25 33L13.1911 32.2535L13.0439 31.1486L12.8377 29.327L12.5431 27.9832L12.2486 26.9679L12.013 26.311L11.7184 25.7436L11.3944 25.236L11.0999 24.8776L10.6876 24.5193L10.3341 24.2207L9.89232 23.9519L9.27379 23.6832L8.62581 23.4741L7.91892 23.2651L6.77023 22.9963L5.03247 22.7574L3.73651 22.5783L2.88236 22.5185L3.67761 22.429L5.12083 22.2498L6.62297 22.0109L7.91892 21.8019L8.89089 21.4734L9.62723 21.1748L10.4225 20.7268L10.8348 20.4282L11.2766 19.9504L11.5417 19.5622L11.8068 19.0845L12.1013 18.5171L12.3075 17.89L12.5431 17.1136L12.7788 15.9191L12.926 14.9635L13.1028 13.6198L13.2206 12.3357L13.2795 11.9176V12.1565L13.3973 13.2017L13.5151 14.426L13.8096 16.3073L14.0747 17.4122L14.3398 18.3379L14.7816 19.2636L15.1351 19.7713L15.6947 20.4282L16.4605 20.9956L17.0495 21.2644L17.8448 21.5331L19.612 22.0109L20.9963 22.2199L22.2923 22.3543Z" stroke="#737791"/>
<path d="M26.2235 13.7851L25.5638 13.7477M25.5638 13.7477L26.2235 13.8149L26.1785 13.8448H26.0136L25.5188 13.8896L25.039 13.9642L24.5741 14.009L23.7794 14.1733L23.4945 14.2479L23.1646 14.3524L22.8497 14.4719L22.5948 14.6063L22.3099 14.7854L22.07 15.0094L21.8451 15.2782L21.6652 15.5917L21.5602 15.8605L21.4103 16.2636L21.2603 16.8907L21.1554 17.5626L21.0504 18.2793L21.0204 18.8168L20.9604 19.0706L20.9304 18.6973L20.8555 18.1449L20.7505 17.2341L20.6006 16.5622L20.4506 16.0546L20.3307 15.7261L20.1807 15.4424L20.0158 15.1886L19.8658 15.0094L19.6559 14.8302L19.476 14.6809L19.2511 14.5465L18.9362 14.4122L18.6063 14.3076L18.2464 14.2031L17.6616 14.0688L16.777 13.9493L16.1172 13.8597L15.6823 13.8299L16.0872 13.7851L16.8219 13.6955L17.5867 13.576L18.2464 13.4715L18.7412 13.3073L19.1161 13.158L19.521 12.934L19.7309 12.7847L19.9558 12.5458L20.0908 12.3517L20.2257 12.1128L20.3756 11.8291L20.4806 11.5156L20.6006 11.1274L20.7205 10.5301L20.7955 10.0524L20.8855 9.38047L20.9454 8.73844L20.9754 8.52941V8.64886L21.0354 9.17144L21.0954 9.7836L21.2453 10.7242L21.3803 11.2767L21.5152 11.7395L21.7402 12.2024L21.9201 12.4562L22.205 12.7847L22.5948 13.0684L22.8947 13.2028L23.2996 13.3371L24.1993 13.576L24.904 13.6806L25.5638 13.7477Z" stroke="#737791"/>
<path d="M15.6824 8.50808L14.7634 8.45476M14.7634 8.45476L15.6824 8.55074L15.6197 8.5934H15.39L14.7007 8.65739L14.0324 8.76404L13.385 8.82803L12.2781 9.06266L11.8812 9.16931L11.4218 9.31861L10.9832 9.48925L10.6281 9.68122L10.2313 9.93718L9.89713 10.2571L9.58386 10.6411L9.33323 11.089L9.18704 11.4729L8.97818 12.0488L8.76933 12.9447L8.62313 13.9045L8.47694 14.9283L8.43517 15.6962L8.35162 16.0588L8.30985 15.5256L8.20543 14.7364L8.05923 13.4353L7.85038 12.4754L7.64152 11.7502L7.47444 11.281L7.26559 10.8757L7.03585 10.5131L6.827 10.2571L6.5346 10.0012L6.28398 9.78787L5.9707 9.5959L5.53211 9.40393L5.07263 9.25462L4.57139 9.10532L3.75686 8.91335L2.52463 8.74271L1.60568 8.61473L1.00001 8.57207L1.56391 8.50808L2.58729 8.3801L3.65244 8.20947L4.57139 8.06016L5.2606 7.82553L5.78273 7.61223L6.34664 7.29228L6.63903 7.07899L6.95231 6.73771L7.14028 6.46042L7.32825 6.11915L7.5371 5.71388L7.6833 5.26596L7.85038 4.71138L8.01746 3.85819L8.12189 3.17564L8.2472 2.2158L8.33074 1.29862L8.37251 1V1.17064L8.45605 1.91718L8.53959 2.7917L8.74844 4.13548L8.93641 4.92468L9.12438 5.5859L9.43766 6.24713L9.68828 6.60973L10.0851 7.07899L10.6281 7.48425L11.0458 7.67622L11.6097 7.86819L12.8628 8.20947L13.8445 8.35877L14.7634 8.45476Z" stroke="#737791"/>
</svg>
