<svg width="20" height="20" viewBox="0 0 20 20" fill="none" xmlns="http://www.w3.org/2000/svg">
<path d="M6.66683 3.33334H5.00016C4.07969 3.33334 3.3335 4.07954 3.3335 5.00001V15C3.3335 15.9205 4.07969 16.6667 5.00016 16.6667H6.66683C7.5873 16.6667 8.3335 15.9205 8.3335 15V5.00001C8.3335 4.07954 7.5873 3.33334 6.66683 3.33334Z" stroke="#1B9C8B" stroke-width="1.5" stroke-linecap="round" stroke-linejoin="round"/>
<path d="M15.0003 3.33334H13.3337C12.4132 3.33334 11.667 4.07954 11.667 5.00001V10C11.667 10.9205 12.4132 11.6667 13.3337 11.6667H15.0003C15.9208 11.6667 16.667 10.9205 16.667 10V5.00001C16.667 4.07954 15.9208 3.33334 15.0003 3.33334Z" stroke="#1B9C8B" stroke-width="1.5" stroke-linecap="round" stroke-linejoin="round"/>
</svg>
