<svg width="20" height="20" viewBox="0 0 20 20" fill="none" xmlns="http://www.w3.org/2000/svg">
<path d="M6.66659 3.33334H4.99992C4.07944 3.33334 3.33325 4.07954 3.33325 5.00001V15C3.33325 15.9205 4.07944 16.6667 4.99992 16.6667H6.66659C7.58706 16.6667 8.33325 15.9205 8.33325 15V5.00001C8.33325 4.07954 7.58706 3.33334 6.66659 3.33334Z" stroke="#64748B" stroke-width="1.5" stroke-linecap="round" stroke-linejoin="round"/>
<path d="M14.9998 3.33334H13.3332C12.4127 3.33334 11.6665 4.07954 11.6665 5.00001V10C11.6665 10.9205 12.4127 11.6667 13.3332 11.6667H14.9998C15.9203 11.6667 16.6665 10.9205 16.6665 10V5.00001C16.6665 4.07954 15.9203 3.33334 14.9998 3.33334Z" stroke="#64748B" stroke-width="1.5" stroke-linecap="round" stroke-linejoin="round"/>
</svg>
