<svg width="20" height="20" viewBox="0 0 20 20" fill="none" xmlns="http://www.w3.org/2000/svg">
<path d="M4.58342 4.16666H15.4168C15.5368 4.20875 15.6456 4.27775 15.7348 4.36838C15.824 4.459 15.8913 4.56885 15.9315 4.68951C15.9718 4.81016 15.9838 4.93842 15.9668 5.06446C15.9498 5.1905 15.9042 5.31098 15.8334 5.41666L11.6668 9.99999V15.8333L8.33342 13.3333V9.99999L4.16676 5.41666C4.096 5.31098 4.05037 5.1905 4.03336 5.06446C4.01636 4.93842 4.02842 4.81016 4.06864 4.68951C4.10886 4.56885 4.17616 4.459 4.26539 4.36838C4.35462 4.27775 4.46341 4.20875 4.58342 4.16666Z" stroke="#64748B" stroke-width="1.5" stroke-linecap="round" stroke-linejoin="round"/>
</svg>
