<svg width="32" height="32" viewBox="0 0 32 32" fill="none" xmlns="http://www.w3.org/2000/svg">
<g clip-path="url(#clip0_9_937)">
<path d="M15.774 29.439C23.1378 29.439 29.1073 23.4694 29.1073 16.1056C29.1073 8.74184 23.1378 2.77231 15.774 2.77231C8.41019 2.77231 2.44066 8.74184 2.44066 16.1056C2.44066 23.4694 8.41019 29.439 15.774 29.439Z" stroke="#737791" stroke-width="2" stroke-linecap="round" stroke-linejoin="round"/>
<path d="M11.894 12.1056C12.2075 11.2145 12.8262 10.4631 13.6406 9.98449C14.455 9.50586 15.4125 9.3309 16.3436 9.4906C17.2746 9.6503 18.1191 10.1343 18.7274 10.857C19.3358 11.5797 19.6687 12.4943 19.6673 13.439C19.6673 16.1056 15.6673 17.439 15.6673 17.439" stroke="#737791" stroke-width="2" stroke-linecap="round" stroke-linejoin="round"/>
<path d="M15.774 22.7723H15.7873" stroke="#737791" stroke-width="2" stroke-linecap="round" stroke-linejoin="round"/>
</g>
<defs>
<clipPath id="clip0_9_937">
<rect width="32" height="32" fill="white"/>
</clipPath>
</defs>
</svg>
