<svg width="20" height="20" viewBox="0 0 20 20" fill="none" xmlns="http://www.w3.org/2000/svg">
<path d="M3.3335 13.3333L3.3335 15C3.3335 15.9205 4.07969 16.6667 5.00016 16.6667L15.0002 16.6667C15.9206 16.6667 16.6668 15.9205 16.6668 15L16.6668 13.3333C16.6668 12.4128 15.9206 11.6667 15.0002 11.6667L5.00016 11.6667C4.07969 11.6667 3.3335 12.4128 3.3335 13.3333Z" stroke="#64748B" stroke-width="1.5" stroke-linecap="round" stroke-linejoin="round"/>
<path d="M3.3335 4.99998L3.3335 6.66665C3.3335 7.58712 4.07969 8.33331 5.00016 8.33331L10.0002 8.33331C10.9206 8.33331 11.6668 7.58712 11.6668 6.66665L11.6668 4.99998C11.6668 4.07951 10.9206 3.33331 10.0002 3.33331L5.00016 3.33331C4.07969 3.33331 3.3335 4.07951 3.3335 4.99998Z" stroke="#64748B" stroke-width="1.5" stroke-linecap="round" stroke-linejoin="round"/>
</svg>
