<svg width="20" height="20" viewBox="0 0 20 20" fill="none" xmlns="http://www.w3.org/2000/svg">
<path d="M14.9999 3.33334H4.99992C4.07944 3.33334 3.33325 4.07954 3.33325 5.00001V6.66668C3.33325 7.58715 4.07944 8.33334 4.99992 8.33334H14.9999C15.9204 8.33334 16.6666 7.58715 16.6666 6.66668V5.00001C16.6666 4.07954 15.9204 3.33334 14.9999 3.33334Z" stroke="#0C9584" stroke-width="1.5" stroke-linecap="round" stroke-linejoin="round"/>
<path d="M14.9999 11.6667H4.99992C4.07944 11.6667 3.33325 12.4129 3.33325 13.3334V15C3.33325 15.9205 4.07944 16.6667 4.99992 16.6667H14.9999C15.9204 16.6667 16.6666 15.9205 16.6666 15V13.3334C16.6666 12.4129 15.9204 11.6667 14.9999 11.6667Z" stroke="#0C9584" stroke-width="1.5" stroke-linecap="round" stroke-linejoin="round"/>
</svg>
