<svg width="20" height="20" viewBox="0 0 20 20" fill="none" xmlns="http://www.w3.org/2000/svg">
<path d="M15.0002 3.33334H5.00016C4.07969 3.33334 3.3335 4.07954 3.3335 5.00001V6.66668C3.3335 7.58715 4.07969 8.33334 5.00016 8.33334H15.0002C15.9206 8.33334 16.6668 7.58715 16.6668 6.66668V5.00001C16.6668 4.07954 15.9206 3.33334 15.0002 3.33334Z" stroke="#64748B" stroke-width="1.5" stroke-linecap="round" stroke-linejoin="round"/>
<path d="M15.0002 11.6667H5.00016C4.07969 11.6667 3.3335 12.4129 3.3335 13.3334V15C3.3335 15.9205 4.07969 16.6667 5.00016 16.6667H15.0002C15.9206 16.6667 16.6668 15.9205 16.6668 15V13.3334C16.6668 12.4129 15.9206 11.6667 15.0002 11.6667Z" stroke="#64748B" stroke-width="1.5" stroke-linecap="round" stroke-linejoin="round"/>
</svg>
