<svg width="39" height="39" viewBox="0 0 39 39" fill="none" xmlns="http://www.w3.org/2000/svg">
<path d="M19.5 21.125C20.3975 21.125 21.125 20.3975 21.125 19.5C21.125 18.6025 20.3975 17.875 19.5 17.875C18.6025 17.875 17.875 18.6025 17.875 19.5C17.875 20.3975 18.6025 21.125 19.5 21.125Z" stroke="black" stroke-width="2" stroke-linecap="round" stroke-linejoin="round"/>
<path d="M30.875 21.125C31.7725 21.125 32.5 20.3975 32.5 19.5C32.5 18.6025 31.7725 17.875 30.875 17.875C29.9775 17.875 29.25 18.6025 29.25 19.5C29.25 20.3975 29.9775 21.125 30.875 21.125Z" stroke="black" stroke-width="2" stroke-linecap="round" stroke-linejoin="round"/>
<path d="M8.125 21.125C9.02246 21.125 9.75 20.3975 9.75 19.5C9.75 18.6025 9.02246 17.875 8.125 17.875C7.22754 17.875 6.5 18.6025 6.5 19.5C6.5 20.3975 7.22754 21.125 8.125 21.125Z" stroke="black" stroke-width="2" stroke-linecap="round" stroke-linejoin="round"/>
</svg>
